<svg width="73" height="35" viewBox="0 0 73 35" fill="none" xmlns="http://www.w3.org/2000/svg">
<path d="M50.0312 29.5312C50.6353 29.5312 51.125 29.0416 51.125 28.4375C51.125 27.8334 50.6353 27.3438 50.0312 27.3438C49.4272 27.3438 48.9375 27.8334 48.9375 28.4375C48.9375 29.0416 49.4272 29.5312 50.0312 29.5312Z" stroke="black" stroke-width="1.5" stroke-linecap="round" stroke-linejoin="round"/>
<path d="M65.3438 29.5312C65.9478 29.5312 66.4375 29.0416 66.4375 28.4375C66.4375 27.8334 65.9478 27.3438 65.3438 27.3438C64.7397 27.3438 64.25 27.8334 64.25 28.4375C64.25 29.0416 64.7397 29.5312 65.3438 29.5312Z" stroke="black" stroke-width="1.5" stroke-linecap="round" stroke-linejoin="round"/>
<path d="M41.2812 5.46875H45.6562L48.9375 24.0625H66.4375" stroke="black" stroke-width="1.5" stroke-linecap="round" stroke-linejoin="round"/>
<path d="M48.9375 18.2292H65.9891C66.1155 18.2293 66.2381 18.1856 66.336 18.1054C66.4338 18.0253 66.5009 17.9137 66.5257 17.7897L68.4944 7.94595C68.5103 7.86657 68.5084 7.78466 68.4888 7.70612C68.4692 7.62758 68.4324 7.55438 68.381 7.49179C68.3297 7.4292 68.2651 7.37879 68.1919 7.3442C68.1187 7.30961 68.0388 7.29169 67.9578 7.29175H46.75" stroke="black" stroke-width="1.5" stroke-linecap="round" stroke-linejoin="round"/>
<g clip-path="url(#clip0_28_461)">
<path d="M17.5 11.6667V23.3334M11.6666 17.5001H23.3333M32.0833 17.5001C32.0833 25.5542 25.5541 32.0834 17.5 32.0834C9.44581 32.0834 2.91663 25.5542 2.91663 17.5001C2.91663 9.44593 9.44581 2.91675 17.5 2.91675C25.5541 2.91675 32.0833 9.44593 32.0833 17.5001Z" stroke="#1E1E1E" stroke-width="4" stroke-linecap="round" stroke-linejoin="round"/>
</g>
<defs>
<clipPath id="clip0_28_461">
<rect width="35" height="35" fill="white"/>
</clipPath>
</defs>
</svg>
