<svg width="22" height="22" viewBox="0 0 22 22" fill="none" xmlns="http://www.w3.org/2000/svg">
<path d="M7.5625 18.5625C7.9422 18.5625 8.25 18.2547 8.25 17.875C8.25 17.4953 7.9422 17.1875 7.5625 17.1875C7.1828 17.1875 6.875 17.4953 6.875 17.875C6.875 18.2547 7.1828 18.5625 7.5625 18.5625Z" stroke="black" stroke-width="1.5" stroke-linecap="round" stroke-linejoin="round"/>
<path d="M17.1875 18.5625C17.5672 18.5625 17.875 18.2547 17.875 17.875C17.875 17.4953 17.5672 17.1875 17.1875 17.1875C16.8078 17.1875 16.5 17.4953 16.5 17.875C16.5 18.2547 16.8078 18.5625 17.1875 18.5625Z" stroke="black" stroke-width="1.5" stroke-linecap="round" stroke-linejoin="round"/>
<path d="M2.0625 3.4375H4.8125L6.875 15.125H17.875" stroke="black" stroke-width="1.5" stroke-linecap="round" stroke-linejoin="round"/>
<path d="M6.875 11.4583H17.5931C17.6726 11.4584 17.7497 11.4309 17.8112 11.3805C17.8727 11.3301 17.9148 11.26 17.9304 11.1821L19.1679 4.99455C19.1779 4.94466 19.1767 4.89317 19.1644 4.84381C19.152 4.79444 19.1289 4.74843 19.0966 4.70909C19.0644 4.66974 19.0238 4.63806 18.9778 4.61631C18.9318 4.59457 18.8815 4.58331 18.8306 4.58334H5.5" stroke="black" stroke-width="1.5" stroke-linecap="round" stroke-linejoin="round"/>
</svg>
